<?xml version="1.0" encoding="utf-8"?>
<!-- Generator: Adobe Illustrator 18.0.0, SVG Export Plug-In . SVG Version: 6.00 Build 0)  -->
<!DOCTYPE svg PUBLIC "-//W3C//DTD SVG 1.1//EN" "http://www.w3.org/Graphics/SVG/1.1/DTD/svg11.dtd">
<svg version="1.1" id="Layer_1" xmlns="http://www.w3.org/2000/svg" xmlns:xlink="http://www.w3.org/1999/xlink" x="0px" y="0px"
	 viewBox="0 0 25 25" enable-background="new 0 0 25 25" xml:space="preserve">
<g>
	<path fill="#1A1A1A" d="M11.9,24.9v-1.1c0-0.1,0-0.2-0.1-0.2l-2.2-1.3c-0.1,0-0.1-0.1-0.1-0.2v-2.8c0.1,0,0.2-0.1,0.3-0.1
		c1.4-0.8,1.6-3.2,0.4-5.3c-1.2-2.1-3.3-3.2-4.8-2.4C4,12.3,3.8,14.7,5,16.8c0.2,0.3,0.4,0.6,0.6,0.8c0,0,0.1,0.1,0.1,0.1v1.8
		c0,0.2-0.2,0.3-0.4,0.2l-2.6-1.5c-0.1,0-0.1-0.1-0.1-0.2V7.5c0-0.1,0-0.2-0.1-0.2L1.7,6.9C1.6,6.8,1.4,6.9,1.4,7
		c-0.8,1.7-1.3,3.5-1.3,5.5C0.1,19.2,5.4,24.6,11.9,24.9"/>
	<path fill="#1A1A1A" d="M5.4,5.1c0.1,0,0.2,0,0.2,0l2.5,1.4c0,0.1,0,0.2,0,0.3c0,1.6,2,3,4.4,3c2.4,0,4.4-1.3,4.4-3
		c0-1.6-2-3-4.4-3c-0.3,0-0.7,0-1,0.1c-0.1,0-0.1,0-0.2,0L9.8,3c-0.2-0.1-0.2-0.3,0-0.4l2.6-1.5c0.1,0,0.2,0,0.2,0l9.2,5.3
		c0.1,0,0.2,0,0.2,0L22.8,6c0.1-0.1,0.2-0.2,0.1-0.3c-1-1.6-2.4-2.9-4.1-3.9C13-1.5,5.7,0.2,2.2,5.7C2.1,5.8,2.1,5.9,2.2,6l0.7,0.4
		c0.1,0,0.2,0,0.2,0L5.4,5.1z"/>
	<path fill="#1A1A1A" d="M22.5,10.1c0,0.1,0,0.2-0.1,0.2l-2.5,1.4c-0.1-0.1-0.2-0.1-0.2-0.2c-1.4-0.8-3.6,0.2-4.8,2.3
		c-1.2,2.1-1.1,4.5,0.3,5.3c1.4,0.8,3.6-0.2,4.8-2.3c0.2-0.3,0.3-0.6,0.4-0.9c0-0.1,0.1-0.1,0.1-0.1l1.6-0.9c0.2-0.1,0.4,0,0.4,0.2
		l0,3c0,0.1,0,0.2-0.1,0.2l-9.1,5.3c-0.1,0-0.1,0.1-0.1,0.2v0.8c0,0.1,0.1,0.3,0.3,0.2c1.8-0.1,3.7-0.7,5.4-1.6
		c5.7-3.3,7.8-10.4,4.9-16.2c-0.1-0.1-0.2-0.2-0.3-0.1l-0.7,0.4c-0.1,0-0.1,0.1-0.1,0.2L22.5,10.1z"/>
</g>
</svg>
