<?xml version="1.0" encoding="utf-8"?>
<!-- Generator: Adobe Illustrator 18.0.0, SVG Export Plug-In . SVG Version: 6.00 Build 0)  -->
<!DOCTYPE svg PUBLIC "-//W3C//DTD SVG 1.1//EN" "http://www.w3.org/Graphics/SVG/1.1/DTD/svg11.dtd">
<svg version="1.1" id="Layer_1" xmlns="http://www.w3.org/2000/svg" xmlns:xlink="http://www.w3.org/1999/xlink" x="0px" y="0px"
	 viewBox="461 261 38 38" enable-background="new 461 261 38 38" xml:space="preserve">
<path fill="#01A158" d="M480.6,282.1l8.2-4.7c0.4-0.2,0.9-0.2,1.2,0l8.1,4.7c0.4,0.2,0.6,0.6,0.6,1.1v9.4c0,0.4-0.2,0.8-0.6,1.1
	l-8.2,4.7c-0.4,0.2-0.9,0.2-1.2,0l-8.2-4.7c-0.4-0.2-0.6-0.6-0.6-1.1v-9.4C479.9,282.8,480.2,282.4,480.6,282.1z"/>
<path fill="#E62339" d="M461.8,282.1l8.2-4.7c0.4-0.2,0.9-0.2,1.2,0l8.1,4.7c0.4,0.2,0.6,0.6,0.6,1.1v9.4c0,0.4-0.2,0.8-0.6,1.1
	l-8.1,4.7c-0.4,0.2-0.9,0.2-1.2,0l-8.1-4.7c-0.4-0.2-0.6-0.6-0.6-1.1v-9.4C461.2,282.8,461.4,282.4,461.8,282.1z"/>
<path fill="#23398D" d="M471.2,265.9l8.1-4.7c0.4-0.2,0.9-0.2,1.2,0l8.2,4.7c0.4,0.2,0.6,0.6,0.6,1.1v9.4c0,0.4-0.2,0.8-0.6,1.1
	l-8.2,4.7c-0.4,0.2-0.9,0.2-1.2,0l-8.1-4.7c-0.4-0.2-0.6-0.6-0.6-1.1v-9.4C470.6,266.5,470.8,266.1,471.2,265.9z"/>
<path fill="#231F20" d="M471.2,276.7l8.2-4.7c0.4-0.2,0.9-0.2,1.2,0l8.1,4.7c0.4,0.2,0.6,0.6,0.6,1.1v9.4c0,0.4-0.2,0.8-0.6,1.1
	l-8.2,4.7c-0.4,0.2-0.9,0.2-1.2,0l-8.2-4.7c-0.4-0.2-0.6-0.6-0.6-1.1v-9.4C470.6,277.4,470.8,277,471.2,276.7z"/>
</svg>
