<?xml version="1.0" encoding="utf-8"?>
<!-- Generator: Adobe Illustrator 18.0.0, SVG Export Plug-In . SVG Version: 6.00 Build 0)  -->
<!DOCTYPE svg PUBLIC "-//W3C//DTD SVG 1.1//EN" "http://www.w3.org/Graphics/SVG/1.1/DTD/svg11.dtd">
<svg version="1.1" id="Layer_1" xmlns="http://www.w3.org/2000/svg" xmlns:xlink="http://www.w3.org/1999/xlink" x="0px" y="0px"
	 viewBox="362 162 236 236" enable-background="new 362 162 236 236" xml:space="preserve">
<g id="Layer_1_1_">
	<g>
		<path fill="#01A158" d="M483.8,294.5l50.7-29.1c2.4-1.4,5.4-1.4,7.7,0l50.5,29.1c2.4,1.4,3.9,3.9,3.9,6.8v58.4
			c0,2.7-1.5,5.3-3.9,6.8L542,395.6c-2.4,1.4-5.4,1.4-7.7,0l-50.7-29.3c-2.4-1.4-3.9-3.9-3.9-6.8v-58.2
			C479.9,298.6,481.4,295.9,483.8,294.5z"/>
		<path fill="#E62339" d="M367.4,294.5l50.7-29.1c2.4-1.4,5.4-1.4,7.7,0l50.3,29.1c2.4,1.4,3.9,3.9,3.9,6.8v58.4
			c0,2.7-1.5,5.3-3.9,6.8l-50.5,29.1c-2.4,1.4-5.4,1.4-7.7,0l-50.5-29.3c-2.4-1.4-3.9-3.9-3.9-6.8v-58.2
			C363.5,298.6,365,295.9,367.4,294.5z"/>
		<path fill="#23398D" d="M425.6,193.7l50.5-29.3c2.4-1.4,5.4-1.4,7.7,0l50.7,29.1c2.4,1.4,3.9,3.9,3.9,6.8v58.4
			c0,2.7-1.5,5.3-3.9,6.8l-50.7,29.1c-2.4,1.4-5.4,1.4-7.7,0l-50.5-29.1c-2.4-1.4-3.9-3.9-3.9-6.8v-58.4
			C421.7,197.6,423.2,195.1,425.6,193.7z"/>
		<path fill="#231F20" d="M425.6,260.9l50.7-29.1c2.4-1.4,5.4-1.4,7.7,0l50.5,29.1c2.4,1.4,3.9,3.9,3.9,6.8V326
			c0,2.7-1.5,5.3-3.9,6.8l-50.7,29.1c-2.4,1.4-5.4,1.4-7.7,0l-50.7-29.3c-2.4-1.4-3.9-3.9-3.9-6.8v-58.2
			C421.7,265,423.2,262.4,425.6,260.9z"/>
		<g>
			<path fill="#FFFFFF" d="M448.8,274.7v5.6c0,0.3,0.3,0.7,0.7,0.7h10.7c0.3,0,0.7,0.3,0.7,0.7v3.9c0,0.3-0.3,0.7-0.7,0.7h-10.7
				c-0.3,0-0.7,0.3-0.7,0.7v9.6c0,0.3-0.3,0.7-0.7,0.7h-4.6c-0.3,0-0.7-0.3-0.7-0.7v-26.9c0-0.3,0.3-0.7,0.7-0.7h18.9
				c0.3,0,0.7,0.3,0.7,0.7v4.1c0,0.3-0.3,0.7-0.7,0.7h-12.9C449.1,274,448.8,274.4,448.8,274.7z"/>
			<path fill="#FFFFFF" d="M490.8,289.9v6.6c0,0.3-0.3,0.7-0.7,0.7h-4.4c-0.3,0-0.7-0.3-0.7-0.7v-5.8l-0.5-1.4h-10.7l-0.5,1.4v5.8
				c0,0.3-0.3,0.7-0.7,0.7h-4.6c-0.3,0-0.7-0.3-0.7-0.7v-6.6c0-0.2,0-0.2,0-0.3l8.5-20.4c0.2-0.2,0.3-0.3,0.7-0.3h5.1
				c0.3,0,0.5,0.2,0.7,0.3l8.4,20.4C490.8,289.7,490.8,289.7,490.8,289.9z M476.4,284.1h5.4c0.5,0,0.8-0.5,0.7-0.8l-3.2-7.9h-0.2
				l-3.2,7.9C475.7,283.6,476,284.1,476.4,284.1z"/>
			<path fill="#FFFFFF" d="M496.1,269.4c0-0.3,0.3-0.7,0.7-0.7h12.3c4.7,0,7.5,2,7.5,6.6v2.4c0,1.7-0.7,3.4-2,4.4
				c-0.5,0.3-0.5,0.8,0,1.2c1.5,1,2,2.7,2,4.4v3c0,4.6-2.7,6.6-7.5,6.6h-12.3c-0.3,0-0.7-0.3-0.7-0.7V269.4z M508.2,280
				c1.9,0,2.5-0.8,2.5-2.4v-1.4c0-1.5-0.7-2.2-2.5-2.2h-5.8c-0.3,0-0.7,0.3-0.7,0.7v4.6c0,0.3,0.3,0.7,0.7,0.7L508.2,280L508.2,280z
				 M508.2,291.5c1.9,0,2.5-0.7,2.5-2.2v-1.9c0-1.5-0.7-2.2-2.5-2.2h-5.8c-0.3,0-0.7,0.3-0.7,0.7v5.1c0,0.3,0.3,0.7,0.7,0.7h5.8
				V291.5z"/>
		</g>
		<g>
			<path fill="#FFFFFF" d="M457.2,321c0,2.9-1.2,4.1-4.6,4.1H447c-3.2,0-4.6-1.2-4.6-4.1v-12.8c0-2.9,1.2-4.1,4.6-4.1h5.6
				c3.2,0,4.6,1.2,4.6,4.1v0.8l-2,0.7v-1.2c0-1.9-0.5-2.7-2.9-2.7h-5.1c-2.4,0-2.9,0.8-2.9,2.7v12.1c0,1.9,0.5,2.7,2.9,2.7h5.1
				c2.4,0,2.9-0.8,2.9-2.7v-1.2l1.9,0.5L457.2,321L457.2,321L457.2,321z"/>
			<path fill="#FFFFFF" d="M462.6,323.4h6.1v-17.5h-5.8v-1.7h13.5v1.7h-5.8v17.5h6.1v1.7h-14.1L462.6,323.4L462.6,323.4z"/>
			<path fill="#FFFFFF" d="M490.7,305.8v19.2h-1.9v-19.2h-7.4v-1.7h16.8v1.7H490.7z"/>
			<path fill="#FFFFFF" d="M510.6,315.7v9.2h-1.9v-9.2l-6.8-6.3v-5.6h1.9v4.7l5.9,5.4l5.9-5.4v-4.7h1.9v5.6L510.6,315.7z"/>
		</g>
	</g>
</g>
</svg>
